<svg width="14" height="18" viewBox="0 0 14 18" fill="none" xmlns="http://www.w3.org/2000/svg">
<path d="M12.2569 2.30826H11.4909V0.654007H9.95877V2.30826H3.8303V0.654007H2.29818V2.30826H1.53212C0.689453 2.30826 0 3.05268 0 3.96251V15.5423C0 16.4521 0.689453 17.1965 1.53212 17.1965H12.2569C13.0996 17.1965 13.7891 16.4521 13.7891 15.5423V3.96251C13.7891 3.05268 13.0996 2.30826 12.2569 2.30826ZM6.89453 4.78964C8.19683 4.78964 9.19271 5.86491 9.19271 7.27102C9.19271 8.67714 8.19683 9.7524 6.89453 9.7524C5.59223 9.7524 4.59635 8.67714 4.59635 7.27102C4.59635 5.86491 5.59223 4.78964 6.89453 4.78964ZM11.4909 14.7152H2.29818V13.888C2.29818 12.2338 5.36241 11.3239 6.89453 11.3239C8.42665 11.3239 11.4909 12.2338 11.4909 13.888V14.7152Z" fill="#4D82DE" fill-opacity="0.8"/>
</svg>
