<?xml version="1.0" encoding="utf-8"?>
<!-- Generator: Adobe Illustrator 22.0.1, SVG Export Plug-In . SVG Version: 6.00 Build 0)  -->
<svg version="1.1" id="Capa_1" xmlns="http://www.w3.org/2000/svg" xmlns:xlink="http://www.w3.org/1999/xlink" x="0px" y="0px"
	 viewBox="0 0 250 250" style="enable-background:new 0 0 250 250;" xml:space="preserve">
<style type="text/css">
	.st0{fill:#00C6FF;}
</style>
<g>
	<path class="st0" d="M212.6,103.6c-2.6,0-4.9,2.2-4.9,4.9v58.9l-1.7,5.2l-15,44.6c-0.4,1.2-0.3,2.6,0.3,3.7
		c0.6,1.1,1.6,1.9,2.9,2.3c0.6,0.2,1.1,0.3,1.5,0.3c2,0,3.8-1.3,4.6-3.2l17.2-51.4v-60.4l0.1-0.6C217.1,105.5,215,103.6,212.6,103.6
		z"/>
	<path class="st0" d="M245.3,116.8v-2.3c0-0.4,0-0.6-0.1-0.9l-0.1-0.3c-1.3-12-8.5-22.6-19.4-28.3l-1.8-0.9l1.6-1.3
		c8.5-6.6,13.4-16.5,13.4-27.2c0-19-15.5-34.4-34.6-34.4s-34.6,15.4-34.6,34.4c0,11.8,6.1,22.7,16.3,29.1l1.7,1.1l-1.7,1.1
		c-10,6.9-16,18.1-16,30.1v12.3l-12.1,16.5H86.6l-5.7-7.8v-21.1c0-12.8-6.8-24.4-18.1-31l-1.7-1l1.6-1.2c9.1-6.6,14.5-17,14.5-27.9
		c0-19-15.5-34.4-34.6-34.4S8,36.8,8,55.8C8,67.1,13.6,77.6,23,84l1.7,1.1L23,86.2c-11,6.7-17.5,18.2-17.5,30.6v102.1
		c0,2.6,2.2,4.9,4.9,4.9s4.9-2.2,4.9-4.9V116.8c0-14.8,12.6-26.9,28-26.9s28,12.1,28,26.9v7.8l-13.8-18.8c-0.9-1.3-2.4-2-3.9-2
		c-1,0-2,0.3-2.9,1c-2.2,1.6-2.7,4.6-1,6.9l1.1,1.6l31,42.1h42c5.1,0,9,3.8,9,8.6c0,4.7-4.1,8.6-9,8.6H76.9c-3.1,0-5.7-1.3-7.4-3.7
		l-29-39.3c-0.2-0.2-0.4-0.5-0.7-0.7c-0.2-0.2-0.3-0.3-0.3-0.3l0,0c-0.8-0.6-1.8-0.9-2.8-0.9s-2,0.3-2.8,0.9c-1.1,0.8-1.8,1.9-2,3.2
		s0.1,2.5,0.9,3.6l29,38.9c2,2.8,5.1,5.2,8.6,6.5l0.9,0.3v37.8c0,2.6,2.2,4.9,4.9,4.9s4.9-2.2,4.9-4.9V182h89.1v36.8
		c0,2.6,2.2,4.9,4.9,4.9c2.6,0,4.9-2.2,4.9-4.9v-102c0-14.8,12.6-26.9,28-26.9c15.2,0,27.8,11.8,28,26.3v55.3L220.6,217
		c-0.4,1.2-0.3,2.6,0.3,3.7c0.6,1.1,1.6,1.9,2.9,2.3c0.6,0.2,1.1,0.3,1.5,0.3c2,0,3.8-1.3,4.6-3.2l15.7-46.9v-55.6
		C245.4,117.4,245.3,117.1,245.3,116.8z M42.5,80.5c-13.7,0-24.8-11.1-24.8-24.8s11.1-24.8,24.8-24.8S67.3,42,67.3,55.7
		S56.2,80.5,42.5,80.5z M170,172.2h-1.3c-0.1,0-0.2,0-0.3,0.1c-0.2,0.1-0.5,0.1-0.9,0.1h-27l0.8-1.8c0.9-2.2,1.4-4.5,1.4-6.8
		s-0.5-4.6-1.4-6.8l-0.8-1.8h22.2l7.2-9.8v26.8H170z M204.5,80.5c-13.7,0-24.8-11.1-24.8-24.8s11.1-24.8,24.8-24.8
		s24.8,11.1,24.8,24.8S218.2,80.5,204.5,80.5z"/>
</g>
</svg>
