<svg width="56" height="43" viewBox="0 0 56 43" fill="none" xmlns="http://www.w3.org/2000/svg">
<path d="M36.6786 -7.07143C37.3452 -6.40476 37.6786 -5.59524 37.6786 -4.64286C37.6786 -3.69048 37.3452 -2.88095 36.6786 -2.21429L10.8214 23.6429L5.96429 28.5C5.29762 29.1667 4.4881 29.5 3.53572 29.5C2.58333 29.5 1.77381 29.1667 1.10714 28.5L-3.75 23.6429L-16.6786 10.7143C-17.3452 10.0476 -17.6786 9.23809 -17.6786 8.28571C-17.6786 7.33333 -17.3452 6.52381 -16.6786 5.85714L-11.8214 0.999998C-11.1548 0.333331 -10.3452 -1.90735e-06 -9.39286 -1.90735e-06C-8.44048 -1.90735e-06 -7.63095 0.333331 -6.96428 0.999998L3.53572 11.5357L26.9643 -11.9286C27.631 -12.5952 28.4405 -12.9286 29.3929 -12.9286C30.3452 -12.9286 31.1548 -12.5952 31.8214 -11.9286L36.6786 -7.07143Z" transform="translate(18 13)" fill="#00ABE4"/>
</svg>
