<?xml version="1.0" encoding="utf-8"?>
<!-- Generator: Adobe Illustrator 22.0.1, SVG Export Plug-In . SVG Version: 6.00 Build 0)  -->
<svg version="1.1" id="Capa_1" xmlns="http://www.w3.org/2000/svg" xmlns:xlink="http://www.w3.org/1999/xlink" x="0px" y="0px"
	 viewBox="0 0 250 250" style="enable-background:new 0 0 250 250;" xml:space="preserve">
<style type="text/css">
	.st0{fill:#00C6FF;}
</style>
<g>
	<path class="st0" d="M241.7,102H131.5V28.7c0-2.1-1.7-3.8-3.8-3.8H9.4c-2.1,0-3.8,1.7-3.8,3.8v187.6c0,2.1,1.7,3.8,3.8,3.8h118.3
		c2.1,0,3.8-1.7,3.8-3.8v-35.2h27.4v11.3h-16.4c-2.1,0-3.8,1.7-3.8,3.8s1.7,3.8,3.8,3.8h70.8c2.1,0,3.8-1.7,3.8-3.8
		s-1.7-3.8-3.8-3.8h-16.8v-11.3h45.2c2.1,0,3.8-1.7,3.8-3.8v-71.5C245.5,103.7,243.8,102,241.7,102z M238,109.6v51.7H131.5v-51.7
		C131.5,109.6,238,109.6,238,109.6z M123.8,212.5H13.2V32.6h110.6C123.8,32.6,123.8,212.5,123.8,212.5z M189.1,192.4h-22.6v-11.3
		h22.6V192.4z M131.5,173.6V167H238v6.5H131.5V173.6z"/>
	<path class="st0" d="M27.2,196h83.3c2.1,0,3.8-1.7,3.8-3.8v-120c0-2.1-1.7-3.8-3.8-3.8H27.2c-2.1,0-3.8,1.7-3.8,3.8v120
		C23.4,194.3,25.1,196,27.2,196z M47.2,108.2H42V96.3h5.2V108.2z M106.4,113.2c0.1,0,0.1,0,0.2,0V136c-0.1,0-0.1,0-0.2,0h-5.9v-15
		c0-1.3-1.1-2.4-2.4-2.4H88c-1.3,0-2.4,1.1-2.4,2.4v14.9h-9.4V121c0-1.3-1.1-2.4-2.4-2.4h-10c-1.3,0-2.4,1.1-2.4,2.4v14.9H52V121
		c0-1.3-1.1-2.4-2.4-2.4h-10c-1.3,0-2.4,1.1-2.4,2.4v14.9h-6.1v-22.8h75.3V113.2z M71.4,108.2h-5.2V96.3h5.2V108.2z M95.7,108.2
		h-5.2V96.3h5.2V108.2z M95.7,163.7h-5.2v-11.9h5.2V163.7z M98.1,147H88c-1.3,0-2.4,1.1-2.4,2.4v14.3h-9.4v-14.3
		c0-1.3-1.1-2.4-2.4-2.4h-10c-1.3,0-2.4,1.1-2.4,2.4v14.3H52v-14.3c0-1.3-1.1-2.4-2.4-2.4h-10c-1.3,0-2.4,1.1-2.4,2.4v14.3h-6.1
		v-22.8h75.3c0.1,0,0.1,0,0.2,0v22.8c-0.1,0-0.1,0-0.2,0h-5.9v-14.3C100.5,148.1,99.4,147,98.1,147z M71.4,163.7h-5.2v-11.9h5.2
		V163.7z M47.2,163.7H42v-11.9h5.2V163.7z M42,135.4v-12h5.2v12H42z M66.2,135.4v-12h5.2v12H66.2z M90.4,135.4v-12h5.2v12H90.4z
		 M47.2,188.3H42v-10.5h5.2V188.3z M71.4,188.3h-5.2v-10.5h5.2V188.3z M95.7,188.3h-5.2v-10.5h5.2V188.3z M100.5,188.3v-12.9
		c0-1.3-1.1-2.4-2.4-2.4H88c-1.3,0-2.4,1.1-2.4,2.4v12.9h-9.4v-12.9c0-1.3-1.1-2.4-2.4-2.4h-10c-1.3,0-2.4,1.1-2.4,2.4v12.9H52
		v-12.9c0-1.3-1.1-2.4-2.4-2.4h-10c-1.3,0-2.4,1.1-2.4,2.4v12.9h-6.1v-19.6h75.3c0.1,0,0.1,0,0.2,0v19.6H100.5z M106.6,76v32.1
		c-0.1,0-0.1,0-0.2,0h-5.9V93.9c0-1.3-1.1-2.4-2.4-2.4H88c-1.3,0-2.4,1.1-2.4,2.4v14.3h-9.4V93.9c0-1.3-1.1-2.4-2.4-2.4h-10
		c-1.3,0-2.4,1.1-2.4,2.4v14.3H52V93.9c0-1.3-1.1-2.4-2.4-2.4h-10c-1.3,0-2.4,1.1-2.4,2.4v14.3h-6.1V76H106.6z"/>
	<path class="st0" d="M32.9,62.2h73c1.3,0,2.3-1,2.3-2.3V41.2c0-1.3-1-2.3-2.3-2.3h-73c-1.3,0-2.3,1-2.3,2.3v18.7
		C30.6,61.1,31.6,62.2,32.9,62.2z M35.2,43.5h68.4v14.1H35.2V43.5z"/>
</g>
</svg>
