<?xml version="1.0" encoding="utf-8"?>
<!-- Svg Vector Icons : http://www.onlinewebfonts.com/icon -->
<!DOCTYPE svg PUBLIC "-//W3C//DTD SVG 1.1//EN" "http://www.w3.org/Graphics/SVG/1.1/DTD/svg11.dtd">
<svg version="1.1" xmlns="http://www.w3.org/2000/svg" xmlns:xlink="http://www.w3.org/1999/xlink" x="0px" y="0px" viewBox="0 0 1000 1000" enable-background="new 0 0 1000 1000" xml:space="preserve">
<metadata> Svg Vector Icons : http://www.onlinewebfonts.com/icon </metadata>
<g><g transform="translate(0.000000,512.000000) scale(0.100000,-0.100000)"><path d="M4689,5016.6c-47.9-3.8-168.7-17.3-268.3-28.8c-1063.7-120.7-2052.8-590.3-2825.2-1339.7C1160.4,3226.4,857.6,2812.4,595,2277.7c-241.5-494.5-389.1-979.4-471.5-1552.5c-32.6-228.1-30.7-981.3,1.9-1217.1c187.8-1360.8,866.3-2522.3,1947.3-3329.3c879.7-657.4,1930.1-989,3047.5-958.3c435.1,11.5,665.1,42.2,1063.8,139.9c2242.5,552,3798.8,2622,3712.6,4933.5c-49.8,1284.2-567.3,2447.6-1491.2,3344.6c-762.9,739.8-1686.7,1190.2-2758.1,1341.7C5448,5008.9,4853.8,5031.9,4689,5016.6z M5323.4,3782.2c872.1-86.3,1656-452.3,2261.7-1054.2c1424.1-1418.3,1452.9-3704.9,65.2-5153.9C6366.1-3765.6,4280.8-3940,2795.3-2830.3C1145.1-1597.9,830.8,748.2,2097.7,2383.1c337.3,435.1,831.8,829.9,1335.9,1065.7C4020.1,3722.8,4704.3,3843.6,5323.4,3782.2z"/><path d="M6672.8,1936.5c-42.2-15.3-107.3-42.2-143.8-59.4c-36.4-19.2-534.8-502.2-1105.9-1071.4L4384.2-231.3L3953,194.2c-502.2,496.4-553.9,530.9-799.3,530.9c-128.4,0-161-7.7-277.9-67.1C2647.7,541.2,2527,324.6,2548.1,69.6c17.3-226.2,42.2-256.8,793.5-1004.3c463.8-461.9,714.9-697.7,772.4-728.3c128.4-65.2,339.3-72.8,488.8-17.3c111.2,40.3,168.7,95.8,1424.1,1349.3c1426,1424.1,1397.3,1389.6,1416.4,1627.3c13.4,157.2-28.8,300.9-124.6,425.5C7178.8,1905.8,6879.7,2003.6,6672.8,1936.5z"/></g></g>
</svg>