<?xml version="1.0" encoding="utf-8"?>
<!-- Generator: Adobe Illustrator 22.0.1, SVG Export Plug-In . SVG Version: 6.00 Build 0)  -->
<svg version="1.1" id="Capa_1" xmlns="http://www.w3.org/2000/svg" xmlns:xlink="http://www.w3.org/1999/xlink" x="0px" y="0px"
	 viewBox="0 0 250 250" style="enable-background:new 0 0 250 250;" xml:space="preserve">
<style type="text/css">
	.st0{fill:none;stroke:#00C6FF;stroke-width:7.0552;stroke-miterlimit:10;}
	.st1{fill:#00C6FF;}
</style>
<g>
	<path class="st0" d="M84.6,211.6c-1.6-5.8-3.1-11.4-4.6-17c-1.2-4.6-2.5-9.2-3.7-13.8c-0.4-1.4-1-2-2.5-2.1
		c-21.4-2.5-38-19-40.9-40.3c-3-22.3,10.6-43.9,32-50.5c1.8-0.6,2.8-1.5,3.5-3.2c6-13.9,15.4-25,27.9-33.4
		c11.6-7.9,24.5-12.1,38.6-13.1c35.2-2.3,67.4,19.3,78.4,51.8c9.4,27.4,4.9,53-13.4,75.7c-10.9,13.5-25.1,21.9-41.8,26.3
		c-23.2,6.1-46.3,12.4-69.5,18.6C87.3,211,86.1,211.2,84.6,211.6z"/>
</g>
<g>
	<path class="st1" d="M136.6,106.8c5.2-3.7,10.6-4.4,16.4-2.8c6.1,1.7,10.6,6.6,10.9,12.9c0.4,8.8,0.3,17.6,0.1,26.4
		c-0.1,3.9-2.6,6.1-6,6.2c-3.3,0.1-6.1-2.4-6.2-6.1c-0.3-7.2-0.2-14.5-0.2-21.8c0-4.7-2.6-7.7-7-7.8c-4.7-0.2-7.7,2.5-7.8,7.3
		c-0.2,6.8-0.1,13.6-0.1,20.4c0,1.2-0.1,2.4-0.4,3.5c-0.7,2.8-3.1,4.5-6,4.5c-2.7,0-5-1.9-5.7-4.6c-0.2-1-0.4-2-0.4-3
		c0-16.6,0-33.3,0-49.9c0-3.9,1.5-6.3,4.2-7.2c4.3-1.4,8.2,1.5,8.3,6.3C136.7,96.1,136.6,101.3,136.6,106.8z"/>
	<path class="st1" d="M117.8,126.4c-0.1,11.1-6.3,20-15.4,22.6c-11.1,3.2-21.7-2-26.2-12.7c-4-9.6-1.5-21.1,6.3-28.1
		c9.9-8.9,26-5.7,32.3,6.4C116.9,118.5,118,122.5,117.8,126.4z M105.8,126.8c-0.5-4.2-1.6-7.2-3.6-9.5c-3.4-3.7-9.9-3.4-12.6,0.8
		c-3.4,5.2-3.5,10.6-0.5,16.2c2.7,5.1,11.3,5.9,14.4-0.1C104.5,131.9,105,129.3,105.8,126.8z"/>
	<path class="st1" d="M189,110.1c0,5.3,0,10.7,0,16c0,2.9-1.6,4.9-4.3,5.7c-2.9,0.8-6-0.2-7.3-2.6c-0.5-0.9-0.8-1.9-0.8-2.9
		c-0.1-10.8,0-21.7-0.1-32.5c0-3,2.6-5.5,5.9-5.6c3.6-0.2,6.5,2.2,6.5,5.6C189.1,99.2,189,104.6,189,110.1L189,110.1z"/>
	<path class="st1" d="M182.9,136.5c3.7,0,6.6,2.9,6.6,6.7c0,3.7-2.9,6.7-6.7,6.8c-3.5,0.1-6.6-2.9-6.6-6.3
		C176.3,139.2,178.7,136.5,182.9,136.5z"/>
</g>
</svg>
