<?xml version="1.0" encoding="utf-8"?>
<!-- Generator: Adobe Illustrator 22.0.1, SVG Export Plug-In . SVG Version: 6.00 Build 0)  -->
<svg version="1.1" xmlns="http://www.w3.org/2000/svg" xmlns:xlink="http://www.w3.org/1999/xlink" x="0px" y="0px"
	 viewBox="0 0 24 24" style="enable-background:new 0 0 24 24;" xml:space="preserve">
<style type="text/css">
	.st0{display:none;}
	.st1{display:inline;}
	.st2{display:inline;fill:#FFFFFF;}
	.st3{display:none;fill:#FFFFFF;}
	.st4{fill:#FFFFFF;}
</style>
<g id="Capa_1" class="st0">
	<rect x="0.1" y="0.1" class="st1" width="23.9" height="23.9"/>
</g>
<g id="Capa_2">
	<g id="flame" transform="translate(0,-952.36218)" class="st0">
		<path class="st2" d="M13.3,954c-1.4,0.6-2.6,2.9-2.9,4.2c-0.1,0.6-0.1,1.1-0.1,1.7c-0.2-0.4-0.3-0.8-0.4-1.4
			c0-0.3-0.2-0.5-0.4-0.6c-0.2-0.1-0.5,0-0.7,0.1c-2.5,2.2-4.1,5.5-4.1,8.8c0,3.6,2.1,5.9,5,7.5c0.2,0.1,0.6,0.1,0.8-0.1
			c0.2-0.2,0.3-0.5,0.2-0.8c-0.2-0.3-0.3-0.6-0.3-1c0-1.1,0.7-2.3,1.6-2.9c0.9,0.6,1.6,1.8,1.6,2.9c0,0.3-0.1,0.7-0.3,1
			c-0.1,0.3-0.1,0.6,0.2,0.8c0.2,0.2,0.5,0.2,0.8,0.1c2.8-1.5,4.8-3.8,5-7.1c0-0.4-0.3-0.7-0.6-0.7c-0.4,0-0.7,0.3-0.7,0.6
			c-0.1,2.3-1.2,3.9-3,5.2c-0.1-1.8-1.1-3.4-2.6-4.1c-0.2-0.1-0.4-0.1-0.6,0c-1.5,0.7-2.6,2.4-2.6,4.1c-1.9-1.3-3-3-3-5.5
			c0-2.4,1-5,2.7-6.9c0.4,1.2,1.2,2,2.1,2.6c0.2,0.1,0.5,0.1,0.8,0c0.2-0.2,0.3-0.4,0.3-0.7c-0.3-1.3-0.4-2.3-0.2-3.3
			c0.1-0.7,0.5-1.4,1.1-2.2c0.3,1.5,1.1,2.7,2,3.8c1.2,1.5,2.4,3,2.9,4.9c0.1,0.4,0.5,0.6,0.8,0.6c0.4-0.1,0.6-0.5,0.5-0.9
			c-0.6-2.3-2-3.9-3.1-5.4c-1.1-1.5-2-2.8-1.8-4.6C14.1,954.4,13.7,954,13.3,954L13.3,954z"/>
	</g>
	<path id="ice" class="st3" d="M22,14.5c-0.1-0.4-0.5-0.6-0.9-0.5c0,0,0,0,0,0l-1.6,0.4c-0.4,0.1-0.9,0-1.3-0.2l-3.4-1.9
		c-0.2-0.1-0.3-0.3-0.2-0.5c0-0.1,0.1-0.2,0.2-0.2l3.4-1.9c0.4-0.2,0.9-0.3,1.3-0.2l1.6,0.4c0.4,0.1,0.8-0.1,0.9-0.5c0,0,0,0,0,0
		l0.2-0.7c0.1-0.4-0.1-0.8-0.5-0.9c0,0,0,0,0,0l-1.1-0.3c-0.4-0.1-0.6-0.5-0.5-0.9l0.3-1.1C20.6,5.4,20.3,5,20,4.9c0,0,0,0,0,0
		l-0.7-0.2c-0.4-0.1-0.8,0.1-0.9,0.5c0,0,0,0,0,0L18,6.8c-0.1,0.4-0.4,0.8-0.8,1l-3.4,1.9c-0.3,0.2-0.6,0-0.6-0.4V5.6
		c0-0.4,0.2-0.9,0.5-1.2l1.2-1.2c0.3-0.3,0.3-0.7,0-1l-0.5-0.5c-0.3-0.3-0.7-0.3-1,0l-0.8,0.8c-0.3,0.3-0.7,0.3-1,0l-0.8-0.8
		c-0.3-0.3-0.7-0.3-1,0L9.4,2.2c-0.3,0.3-0.3,0.7,0,1l1.2,1.2c0.3,0.3,0.5,0.8,0.5,1.2v3.9c0,0.4-0.3,0.5-0.6,0.4L7.1,7.9
		c-0.4-0.2-0.7-0.6-0.8-1L5.9,5.2C5.8,4.8,5.4,4.6,5.1,4.7c0,0,0,0,0,0L4.4,4.9C4,5,3.8,5.4,3.9,5.8c0,0,0,0,0,0l0.3,1.1
		C4.3,7.2,4,7.6,3.7,7.7L2.6,8C2.2,8.1,2,8.4,2.1,8.8c0,0,0,0,0,0l0.2,0.7c0.1,0.4,0.5,0.6,0.9,0.5c0,0,0,0,0,0l1.6-0.4
		c0.4-0.1,0.9,0,1.3,0.2l3.4,1.9c0.2,0.1,0.3,0.3,0.2,0.5c0,0.1-0.1,0.2-0.2,0.2l-3.4,1.9c-0.4,0.2-0.9,0.3-1.3,0.2L3.2,14
		c-0.4-0.1-0.8,0.1-0.9,0.5c0,0,0,0,0,0l-0.2,0.7C2,15.6,2.2,16,2.6,16.1c0,0,0,0,0,0l1.1,0.3c0.4,0.1,0.6,0.5,0.5,0.9l-0.3,1.1
		C3.8,18.6,4,19,4.4,19.1c0,0,0,0,0,0l0.7,0.2c0.4,0.1,0.8-0.1,0.9-0.5c0,0,0,0,0,0l0.4-1.6c0.1-0.4,0.4-0.8,0.8-1l3.4-1.9
		c0.3-0.2,0.6,0,0.6,0.4v3.9c0,0.4-0.2,0.9-0.5,1.2l-1.2,1.2c-0.3,0.3-0.3,0.7,0,1l0.5,0.5c0.3,0.3,0.7,0.3,1,0l0.8-0.8
		c0.3-0.3,0.7-0.3,1,0l0.8,0.8c0.3,0.3,0.7,0.3,1,0l0.5-0.5c0.3-0.3,0.3-0.7,0-1l-1.2-1.2c-0.3-0.3-0.5-0.8-0.5-1.2v-3.9
		c0-0.4,0.3-0.5,0.6-0.4l3.4,1.9c0.4,0.2,0.7,0.6,0.8,1l0.4,1.6c0.1,0.4,0.5,0.6,0.9,0.5c0,0,0,0,0,0l0.7-0.2
		c0.4-0.1,0.6-0.5,0.5-0.9c0,0,0,0,0,0l-0.3-1.1c-0.1-0.4,0.1-0.8,0.5-0.9l1.1-0.3c0.4-0.1,0.6-0.5,0.5-0.9c0,0,0,0,0,0L22,14.5z"/>
	<path id="road" class="st3" d="M5.9,21.9c-0.1,0.3-0.2,0.5-0.4,0.8c-0.1,0.3-0.4,0.5-0.7,0.5c-0.1,0-0.2,0-0.3-0.1
		c-0.4-0.2-0.6-0.6-0.4-1c0,0,0,0,0,0c0.1-0.3,0.2-0.6,0.4-0.9c0.2-0.4,0.6-0.5,1-0.4C5.9,21.1,6,21.5,5.9,21.9L5.9,21.9z M17.4,9.8
		c0.1,0.1,0.3,0.1,0.4,0.1c0.3,0,0.5-0.1,0.6-0.4c0.4-0.6,0.7-1.2,0.9-1.9c0.2-0.4,0-0.8-0.4-1c-0.4-0.2-0.8,0-1,0.4
		c-0.2,0.6-0.5,1.1-0.8,1.6C17,9.1,17.1,9.6,17.4,9.8C17.4,9.8,17.4,9.8,17.4,9.8z M9.6,16.7c0.3-0.3,0.3-0.8,0-1.1
		c-0.3-0.3-0.8-0.3-1.1,0c-0.5,0.5-0.9,1-1.4,1.5c-0.3,0.3-0.2,0.8,0.1,1c0.3,0.3,0.8,0.2,1-0.1C8.7,17.6,9.1,17.2,9.6,16.7z
		 M14.1,11.9c-0.3,0.2-0.6,0.4-1,0.5c-0.2,0.1-0.5,0.2-0.7,0.4c-0.4,0.2-0.5,0.6-0.3,1c0.2,0.4,0.6,0.5,1,0.3
		c0.2-0.1,0.4-0.2,0.7-0.3c0.4-0.2,0.7-0.4,1.1-0.6c0.3-0.2,0.4-0.7,0.2-1C14.9,11.8,14.5,11.7,14.1,11.9L14.1,11.9z M19.6,3.6
		L19.6,3.6c0.4,0,0.8-0.3,0.8-0.7c0-0.3,0-0.7,0-1c0-0.4-0.3-0.7-0.8-0.7c-0.4,0-0.7,0.3-0.7,0.8c0,0.3,0,0.6,0,0.9
		C18.9,3.3,19.2,3.6,19.6,3.6C19.6,3.6,19.6,3.6,19.6,3.6z M24,1.6c0-0.4-0.4-0.7-0.8-0.7c-0.4,0-0.7,0.4-0.7,0.8
		c0.1,3-0.5,10.5-7.8,14.1c-2.8,1.4-5.1,3.6-6.5,6.3c-0.1,0.4,0,0.8,0.4,1c0.3,0.1,0.7,0,0.9-0.2c1.3-2.5,3.4-4.5,5.9-5.7
		C23.5,13.2,24.1,5,24,1.6z M16.8,1.6c0-0.4-0.4-0.7-0.8-0.7c-0.4,0-0.7,0.4-0.7,0.8c0,0.5,0.3,5.3-3.7,7.3
		C3.3,13.1,0.7,20.8,0.3,22.3c-0.1,0.4,0.1,0.8,0.5,0.9c0,0,0,0,0,0c0.1,0,0.1,0,0.2,0c0.3,0,0.6-0.2,0.7-0.5
		c0.2-0.9,2.7-8.5,10.6-12.3C17.2,8,16.8,2.2,16.8,1.6L16.8,1.6z M4.2,6.5v-3c0-0.4,0.3-0.7,0.7-0.7h4.9c0.2,0,0.3,0.1,0.5,0.2
		l1.8,1.5c0.3,0.3,0.4,0.7,0.1,1c0,0-0.1,0.1-0.1,0.1l-1.8,1.5c-0.1,0.1-0.3,0.2-0.5,0.2H8.5v1.9c0,0.4-0.3,0.7-0.7,0.7S7,9.5,7,9.1
		V7.2h-2C4.5,7.2,4.2,6.9,4.2,6.5z M5.7,5.7h3.9L10.5,5L9.6,4.3H5.7V5.7z"/>
	<g id="snacks" class="st0">
		<path class="st2" d="M9.3,17.5c0.2,0,0.5,0,0.7-0.2c0.9-0.4,1.3-1.1,1.6-1.7c0.3-0.6,0.7-1.2,1.6-1.9c1.3-1,2.9-0.9,3.5-0.6
			c0,0,0.1,0,0.1,0.1c0.6,0.2,1.2,0.1,1.7-0.2c0.9-0.6,1-1.8,0.3-3c-1-1.7-3.1-2.9-5.1-1.9c-0.8,0.4-1.5,1-2.1,1.9
			c-1-0.1-2,0-2.9,0.5c-2.2,1-2.4,3.5-1.5,5.4C7.7,16.8,8.5,17.4,9.3,17.5z M14.2,8.9c1.6-0.7,3.1,0.4,3.7,1.5
			c0.1,0.2,0.6,1.2,0,1.6c-0.2,0.1-0.5,0.2-0.7,0.1c-0.1,0-0.2-0.1-0.3-0.2c-0.7-0.4-2.3-1.4-4.1-1.9C13.2,9.6,13.7,9.2,14.2,8.9z
			 M9.2,11.3c0.6-0.3,1.3-0.4,1.9-0.4c1.3,0,2.6,0.5,3.6,1c-0.7,0.1-1.4,0.4-2.1,0.9c-1.1,0.8-1.5,1.6-1.9,2.3
			c-0.3,0.6-0.5,1-1.1,1.2c-0.5,0.2-1.1-0.4-1.4-1.1C7.6,14.1,7.5,12.1,9.2,11.3z"/>
		<path class="st2" d="M4.1,4.6c0,0,0.1,0.1,0.1,0.1C2.8,9.8,2.8,14.5,4,18.4c0,0,0,0.1,0,0.1c0,0,0,0,0,0c-0.5,0.8-0.9,1.4-1.3,3.5
			c0,0.2,0,0.3,0.1,0.5c0.1,0.1,0.2,0.2,0.4,0.2c0,0,0.1,0,0.1,0c6.1-0.8,11.8-0.8,17.9,0c0.3,0,0.6-0.2,0.6-0.5
			c0.2-1.7,0-2.6-1-3.9c1-5,1-9.2,0.1-13.5c0-0.1-0.1-0.2-0.1-0.2c0.5-0.7,1-1.5,1.2-2.8c0-0.2,0-0.3-0.1-0.5
			c-0.1-0.1-0.3-0.2-0.5-0.2C15.4,2,9.7,2,3.6,1.2C3.3,1.2,3,1.4,3,1.7C2.8,2.9,3.5,3.8,4.1,4.6z M20.9,2.3c-0.3,0.9-0.7,1.4-1.1,2
			c-0.5,0.6-0.9,1.2-1.1,2.2c-0.1,0.3,0.1,0.6,0.4,0.6c0.3,0.1,0.6-0.1,0.6-0.4c0.1-0.4,0.2-0.7,0.4-1c0.7,3.6,0.6,7.3-0.1,11.5
			c-0.2-0.2-0.5-0.2-0.7,0c-0.2,0.2-0.2,0.5,0,0.8c0.2,0.3,0.5,0.5,0.7,0.8c0,0,0.1,0.1,0.1,0.1c0.8,1.1,1,1.6,0.9,2.7
			c-5.8-0.7-11.2-0.7-17,0c0.1-0.4,0.2-0.7,0.3-1l0.9-0.1c0.3,0,0.5-0.3,0.5-0.6c0-0.3-0.3-0.5-0.6-0.5l-0.2,0
			c0.1-0.1,0.1-0.2,0.2-0.3c0.2-0.3,0.4-0.6,0.6-1c0.1-0.3,0-0.6-0.2-0.7c-0.1-0.1-0.3-0.1-0.5,0C3.9,14.1,4,10.2,5,6
			C5,6.2,5.1,6.4,5.1,6.7c0,0.3,0.2,0.5,0.5,0.5c0,0,0,0,0,0c0.3,0,0.5-0.2,0.5-0.5c0-0.9-0.7-2.1-0.7-2.1c0,0,0,0,0.1,0
			C5.8,4.6,6,4.4,6,4.1c0-0.3-0.2-0.6-0.5-0.6l-1-0.1c0,0,0,0-0.1,0C4.3,3,4.1,2.7,4.1,2.4C9.8,3.1,15.2,3,20.9,2.3z"/>
		<path class="st2" d="M7.7,4.8C8.6,4.9,9.3,5,9.9,5.1c0,0,0,0,0,0c0.3,0,0.5-0.2,0.5-0.5C10.5,4.3,10.3,4,10,4
			C9.4,4,8.7,3.9,7.8,3.8C7.5,3.7,7.3,4,7.2,4.2C7.2,4.5,7.4,4.8,7.7,4.8z"/>
		<path class="st2" d="M12.2,5.2C12.2,5.2,12.2,5.2,12.2,5.2c0.8,0,1.5,0,2.3-0.1c0.3,0,0.5-0.3,0.5-0.6C15,4.2,14.7,4,14.4,4
			c-0.8,0.1-1.5,0.1-2.2,0.1c-0.3,0-0.5,0.2-0.5,0.5C11.7,4.9,11.9,5.2,12.2,5.2z"/>
		<path class="st2" d="M16.7,4.9C16.7,4.9,16.7,4.9,16.7,4.9c0.4,0,0.7-0.1,1.1-0.1c0.3,0,0.5-0.3,0.5-0.6c0-0.3-0.3-0.5-0.6-0.5
			c-0.3,0-0.7,0.1-1,0.1c-0.3,0-0.5,0.3-0.5,0.6C16.2,4.7,16.4,4.9,16.7,4.9z"/>
		<path class="st2" d="M17.9,19.3c-0.3,0-0.6,0.2-0.6,0.5c0,0.3,0.2,0.6,0.5,0.6c0.3,0,0.6,0.1,1,0.1c0,0,0,0,0.1,0
			c0.3,0,0.5-0.2,0.5-0.5c0-0.3-0.2-0.6-0.5-0.6C18.5,19.4,18.2,19.4,17.9,19.3z"/>
		<path class="st2" d="M12.4,18.9l-0.3,0c-0.5,0-1,0-1.5,0c-0.3,0-0.5,0.3-0.5,0.5c0,0.3,0.2,0.5,0.5,0.5c0,0,0,0,0,0
			c0.5,0,1,0,1.5,0l0.3,0c0,0,0,0,0,0c0.3,0,0.5-0.2,0.5-0.5C12.9,19.2,12.6,18.9,12.4,18.9z"/>
		<path class="st2" d="M6.9,20.2C6.9,20.2,6.9,20.2,6.9,20.2c0.7-0.1,1.3-0.1,1.9-0.2c0.3,0,0.5-0.3,0.5-0.6c0-0.3-0.3-0.5-0.6-0.5
			c-0.6,0-1.2,0.1-1.8,0.2c-0.3,0-0.5,0.3-0.5,0.6C6.4,20,6.6,20.2,6.9,20.2z"/>
		<path class="st2" d="M16,19.1c-0.6-0.1-1.3-0.1-1.8-0.1c-0.3,0-0.5,0.2-0.6,0.5c0,0.3,0.2,0.5,0.5,0.6c0.6,0,1.2,0.1,1.8,0.1
			c0,0,0,0,0,0c0.3,0,0.5-0.2,0.5-0.5C16.5,19.4,16.3,19.2,16,19.1z"/>
	</g>
	<g id="chart" class="st0">
		<path class="st2" d="M20.4,1.9c-1.3,0.3-2.2,1.6-1.9,3c0.2,0.7,0.6,1.3,1.2,1.6l-1.6,3.3c-0.5-0.3-1.1-0.4-1.7-0.3
			c-0.7,0.2-1.3,0.6-1.6,1.2L9.9,9.6c0-0.1,0-0.3-0.1-0.4C9.6,7.8,8.2,7,6.9,7.3c-1.3,0.3-2.2,1.6-1.9,3c0.1,0.5,0.3,0.9,0.6,1.2
			l-2.3,3.4c-0.2,0-0.5,0-0.7,0.1c-1.3,0.3-2.2,1.6-1.9,3c0.3,1.3,1.6,2.2,3,1.9c1.3-0.3,2.2-1.6,1.9-3c-0.1-0.7-0.6-1.2-1.1-1.6
			L6.6,12C7,12.2,7.5,12.2,8,12.1c0.8-0.2,1.4-0.7,1.7-1.4l4.7,1.1c0,0.2,0,0.5,0.1,0.7c0.3,1.3,1.6,2.2,3,1.9
			c1.3-0.3,2.2-1.6,1.9-3c-0.1-0.3-0.2-0.6-0.4-0.8l1.9-3.8c0.2,0,0.4,0,0.7-0.1c1.3-0.3,2.2-1.6,1.9-3C23.1,2.5,21.7,1.6,20.4,1.9z
			 M3.4,18.6c-0.7,0.2-1.5-0.3-1.6-1c-0.2-0.7,0.3-1.5,1-1.6c0.7-0.2,1.5,0.3,1.6,1C4.6,17.7,4.2,18.4,3.4,18.6z M7.7,11
			c-0.7,0.2-1.5-0.3-1.6-1c-0.2-0.7,0.3-1.5,1-1.6c0.7-0.2,1.5,0.3,1.6,1C8.9,10.2,8.5,10.9,7.7,11z M17.2,13.3
			c-0.7,0.2-1.5-0.3-1.6-1c-0.2-0.7,0.3-1.5,1-1.6c0.7-0.2,1.5,0.3,1.6,1C18.4,12.4,17.9,13.1,17.2,13.3z M21.2,5.6
			c-0.7,0.2-1.5-0.3-1.6-1c-0.2-0.7,0.3-1.5,1-1.6c0.7-0.2,1.5,0.3,1.6,1C22.4,4.8,22,5.5,21.2,5.6z"/>
	</g>
	<g>
		<g>
			<g>
				<path class="st4" d="M10.5,7c1.1,0,2.1,0.2,3.1,0.6l5.2,2c0.2,0.1,0.3,0.2,0.3,0.4v5.6c0,0.1,0,0.2-0.1,0.3
					c-0.1,0.1-0.2,0.1-0.3,0.1c-1.7-0.1-3.8,0.1-6.5,0.7c-0.9,0.2-1.8-0.3-2.1-1.2c-0.2-0.9,0.3-1.8,1.2-2.1l1.4-0.4l-2.5-1.6
					c-0.3-0.2-0.6-0.2-0.9-0.1l-5.5,1.5c-0.9,0.2-1.8-0.2-2.1-1.1c0,0,0,0,0,0c-0.1-0.2-0.1-0.4-0.1-0.6c0-0.7,0.5-1.4,1.1-1.6
					c1.3-0.5,3.4-1.2,5-1.7C8.6,7.2,9.6,7,10.5,7z M18.2,10.2l-4.9-1.9c-1.7-0.6-3.6-0.7-5.4-0.1c-1.6,0.5-3.7,1.3-5,1.7
					c-0.4,0.1-0.6,0.5-0.6,0.9c0,0.1,0,0.2,0.1,0.3c0.2,0.4,0.6,0.7,1.1,0.6L9,10.3c0.5-0.1,1.1-0.1,1.5,0.2l3.2,2
					c0.1,0.1,0.2,0.2,0.2,0.4c0,0.2-0.1,0.3-0.3,0.3L11.4,14c-0.5,0.1-0.7,0.6-0.6,1.1c0.1,0.5,0.6,0.8,1.1,0.6
					c2.6-0.6,4.6-0.8,6.3-0.8V10.2z"/>
			</g>
		</g>
		<g>
			<g>
				<path class="st4" d="M18.7,8h3.1c0.2,0,0.4,0.2,0.4,0.4v8.5c0,0.2-0.2,0.4-0.4,0.4h-3.1c-0.2,0-0.4-0.2-0.4-0.4V8.4
					C18.2,8.2,18.4,8,18.7,8z M21.3,8.9h-2.3v7.7h2.3V8.9z"/>
			</g>
		</g>
	</g>
</g>
</svg>
