<?xml version="1.0" encoding="utf-8"?>
<!-- Generator: Adobe Illustrator 22.0.1, SVG Export Plug-In . SVG Version: 6.00 Build 0)  -->
<svg version="1.1" id="Capa_1" xmlns="http://www.w3.org/2000/svg" xmlns:xlink="http://www.w3.org/1999/xlink" x="0px" y="0px"
	 viewBox="0 0 1000 1000" style="enable-background:new 0 0 1000 1000;" xml:space="preserve">
<g>
	<g transform="translate(0.000000,512.000000) scale(0.100000,-0.100000)">
		<path d="M4689,5016.6c-47.9-3.8-168.7-17.3-268.3-28.8C3357,4867.1,2367.9,4397.5,1595.5,3648.1
			C1160.4,3226.4,857.6,2812.4,595,2277.7c-241.5-494.5-389.1-979.4-471.5-1552.5c-32.6-228.1-30.7-981.3,1.9-1217.1
			c187.8-1360.8,866.3-2522.3,1947.3-3329.3c879.7-657.4,1930.1-989,3047.5-958.3c435.1,11.5,665.1,42.2,1063.8,139.9
			c2242.5,552,3798.8,2622,3712.6,4933.5c-49.8,1284.2-567.3,2447.6-1491.2,3344.6c-762.9,739.8-1686.7,1190.2-2758.1,1341.7
			C5448,5008.9,4853.8,5031.9,4689,5016.6z M5323.4,3782.2c872.1-86.3,1656-452.3,2261.7-1054.2
			C9009.2,1309.7,9038-976.9,7650.3-2425.9c-1284.2-1339.7-3369.5-1514.1-4855-404.4C1145.1-1597.9,830.8,748.2,2097.7,2383.1
			c337.3,435.1,831.8,829.9,1335.9,1065.7C4020.1,3722.8,4704.3,3843.6,5323.4,3782.2z"/>
		<path d="M3629.1,1942.2c-176.3-44.1-341.2-184-419.8-354.6c-34.5-74.8-44.1-128.4-42.2-249.2c1.9-243.4,24.9-277.9,523.2-780.1
			l431.2-437l-423.6-425.5c-502.2-507.9-532.8-552-532.8-801.2c0-139.9,7.7-178.3,53.7-272.2c99.7-205.1,279.8-323.9,511.8-337.3
			c115-5.7,166.8,0,258.7,34.5c105.4,40.3,153.3,82.4,561.6,484.9l444.7,442.8l437-433.2c264.5-264.5,469.6-450.4,521.3-477.2
			c72.8-38.3,115-46,268.3-46s195.5,7.7,264.5,44.1c126.5,67.1,228.1,168.7,285.6,287.5c46,93.9,53.7,132.3,53.7,272.2
			c0,249.2-30.7,293.2-532.8,801.2l-423.6,425.5l433.2,437c475.3,475.3,509.8,525.2,529,743.7c19.2,247.2-105.4,467.7-329.7,582.7
			c-116.9,59.4-149.5,67.1-277.9,67.1c-247.2,0-299-34.5-799.2-530.9l-429.3-425.5L4566.4,1421
			c-341.2,339.3-450.4,435.1-532.8,473.4C3914.7,1948,3738.3,1969.1,3629.1,1942.2z"/>
	</g>
</g>
</svg>
