<svg width="182" height="49" viewBox="0 0 182 49" fill="none" xmlns="http://www.w3.org/2000/svg">
<path d="M7.90561 3.4995C10.2559 3.4995 12.0721 5.35217 12.0721 7.51363C12.0721 9.77801 10.1491 11.6307 7.90561 11.6307C5.55529 11.6307 3.63231 9.77801 3.63231 7.51363C3.63231 5.35217 5.55529 3.4995 7.90561 3.4995ZM7.90561 0C3.52547 0 0 3.39657 0 7.61656C0 11.8365 3.52547 15.2331 7.90561 15.2331C12.2857 15.2331 15.8112 11.8365 15.8112 7.61656C15.8112 3.39657 12.2857 0 7.90561 0Z" transform="translate(31.3701 0.183228) rotate(0.337739)" fill="#3A3A3A"/>
<path d="M10.1491 3.4995C13.7814 3.4995 16.6659 6.27851 16.6659 9.77801C16.6659 13.2775 13.7814 16.0565 10.1491 16.0565C6.62362 16.0565 3.73914 13.2775 3.73914 9.77801C3.73914 6.27851 6.62362 3.4995 10.1491 3.4995ZM10.1491 0C4.5938 0 0 4.32291 0 9.77801C0 15.1302 4.48697 19.556 10.1491 19.556C15.7044 19.556 20.2982 15.1302 20.2982 9.77801C20.2982 4.32291 15.8112 0 10.1491 0Z" transform="translate(17.8193 15.028) rotate(0.337739)" fill="#3A3A3A"/>
<path d="M7.90561 3.4995C10.2559 3.4995 12.1789 5.35217 12.1789 7.51363C12.1789 9.77801 10.2559 11.6307 7.90561 11.6307C5.5553 11.6307 3.63231 9.77801 3.63231 7.51363C3.73914 5.35217 5.5553 3.4995 7.90561 3.4995ZM7.90561 0C3.52548 0 0 3.39657 0 7.61656C0 11.8365 3.52548 15.2331 7.90561 15.2331C12.2857 15.2331 15.8112 11.8365 15.8112 7.61656C15.8112 3.39657 12.2857 0 7.90561 0Z" transform="translate(40.0312 17.3204) rotate(0.337739)" fill="#3A3A3A"/>
<path d="M7.90561 3.4995C10.2559 3.4995 12.1789 5.35217 12.1789 7.51363C12.1789 9.77801 10.2559 11.6307 7.90561 11.6307C5.55529 11.6307 3.63231 9.77801 3.63231 7.51363C3.63231 5.35217 5.55529 3.4995 7.90561 3.4995ZM7.90561 0C3.52547 0 0 3.39657 0 7.61656C0 11.8365 3.52547 15.2331 7.90561 15.2331C12.2857 15.2331 15.8112 11.8365 15.8112 7.61656C15.7044 3.39657 12.1789 0 7.90561 0Z" transform="translate(0.180664 17.0858) rotate(0.337739)" fill="#3A3A3A"/>
<path d="M0.106831 0.411705H3.84597V2.77901H3.95281C4.70063 1.33804 6.19629 0 8.76027 0C11.2174 0 12.8199 0.926337 13.6746 2.77901C14.8497 0.82341 16.4522 0 18.8025 0C22.969 0 24.4647 2.88194 24.4647 6.48436V15.5419H20.5118V6.999C20.5118 5.14632 19.8709 3.4995 17.6274 3.4995C15.1702 3.4995 14.2087 5.4551 14.2087 7.4107V15.6448H10.2559V6.58729C10.2559 4.73462 9.5081 3.4995 7.58511 3.4995C5.02113 3.4995 3.95281 5.35217 3.95281 7.30777V15.6448H0V0.411705H0.106831Z" transform="translate(61.6094 17.0358) rotate(0.337739)" fill="#3A3A3A"/>
<path d="M10.8969 13.4834C9.72176 15.2331 7.79877 15.9536 5.76895 15.9536C2.88447 15.9536 0 14.4097 0 11.4248C0 6.48436 5.98262 6.17559 9.93542 6.17559H10.8969V5.76388C10.8969 3.9112 9.40126 2.88194 7.26461 2.88194C5.66212 2.88194 4.16646 3.4995 3.09814 4.42584L1.06833 2.47023C2.77765 0.720485 5.23479 0 7.79877 0C14.5292 0 14.5292 4.63169 14.5292 6.79314V15.5419H10.8969V13.4834ZM10.6833 8.74875H9.82859C7.69194 8.74875 3.9528 8.9546 3.9528 11.1161C3.9528 12.557 5.44846 13.0717 6.73045 13.0717C9.40126 13.0717 10.6833 11.7336 10.6833 9.57216V8.74875Z" transform="translate(88.6406 17.1952) rotate(0.337739)" fill="#3A3A3A"/>
<path d="M10.0423 4.52876C9.08077 3.60242 8.11928 3.19072 6.73045 3.19072C5.66213 3.19072 4.38013 3.70535 4.38013 4.83754C4.38013 7.51363 12.9267 5.35217 12.9267 11.219C12.9267 14.8214 9.40126 16.0565 6.08945 16.0565C3.6323 16.0565 1.60249 15.439 0 13.6892L2.35031 11.6307C3.41864 12.557 4.70063 13.1746 6.40995 13.1746C7.58511 13.1746 9.08077 12.6599 9.08077 11.4248C9.08077 8.33704 0.534163 10.8073 0.534163 4.94047C0.534163 1.5439 3.63231 0 6.83728 0C8.97394 0 11.2174 0.617557 12.4994 2.26438L10.0423 4.52876Z" transform="translate(105.414 17.1913) rotate(0.337739)" fill="#3A3A3A"/>
<path d="M10.0423 4.52876C9.08077 3.60242 8.11927 3.19072 6.73045 3.19072C5.66212 3.19072 4.48696 3.70535 4.48696 4.83754C4.48696 7.51363 12.9267 5.35217 12.9267 11.219C12.9267 14.8214 9.29443 16.0565 6.08945 16.0565C3.6323 16.0565 1.60249 15.439 0 13.6892L2.35031 11.6307C3.41864 12.557 4.70063 13.1746 6.40995 13.1746C7.58511 13.1746 9.08077 12.6599 9.08077 11.4248C9.08077 8.33704 0.534163 10.8073 0.534163 4.94047C0.534163 1.5439 3.63231 0 6.83728 0C8.97394 0 11.2174 0.617557 12.4994 2.26438L10.0423 4.52876Z" transform="translate(119.729 17.2758) rotate(0.337739)" fill="#3A3A3A"/>
<path d="M10.8969 13.4834C9.72176 15.2331 7.79879 15.9536 5.76897 15.9536C2.88449 15.9536 0 14.4097 0 11.4248C0 6.48436 5.98263 6.17559 9.93543 6.17559H10.8969V5.76388C10.8969 3.9112 9.40127 2.88194 7.26462 2.88194C5.66213 2.88194 4.16648 3.4995 3.09815 4.42584L1.06833 2.47023C2.77765 0.720485 5.2348 0 7.79878 0C14.5292 0 14.5292 4.63169 14.5292 6.79314V15.5419H11.0038V13.4834H10.8969ZM10.5764 8.74875H9.72177C7.58512 8.74875 3.84598 8.9546 3.84598 11.1161C3.84598 12.557 5.34162 13.0717 6.62362 13.0717C9.29443 13.0717 10.5764 11.7336 10.5764 9.57216V8.74875V8.74875Z" transform="translate(134.471 17.4652) rotate(0.337739)" fill="#3A3A3A"/>
<path d="M3.9528 0H0V20.8941H3.9528V0Z" transform="translate(152.233 12.3209) rotate(0.337739)" fill="#3A3A3A"/>
<path d="M3.9528 0H0V15.2331H3.9528V0Z" transform="translate(159.571 18.0254) rotate(0.337739)" fill="#3A3A3A"/>
<path d="M0 0.30878H3.73914V2.77901H3.84598C4.59381 1.23512 6.08946 0 8.65344 0C12.9267 0 14.4224 2.88194 14.4224 5.96973V15.5419H10.4696V7.82241C10.4696 6.17559 10.3628 3.39657 7.58512 3.39657C5.02114 3.39657 3.9528 5.24925 3.9528 7.20485V15.5419H0V0.30878Z" transform="translate(166.84 17.7592) rotate(0.337739)" fill="#3A3A3A"/>
<path d="M4.2733 2.05853C4.2733 3.19072 3.31181 4.11706 2.13665 4.11706C0.961493 4.11706 0 3.19072 0 2.05853C0 0.926338 0.961493 0 2.13665 0C3.31181 0 4.2733 0.926338 4.2733 2.05853Z" transform="translate(159.395 12.3632) rotate(0.337739)" fill="#3A3A3A"/>
<path d="M0 0H2.35032C3.95281 0 4.9143 0.720485 4.9143 2.05853C4.9143 3.39657 3.95281 4.11706 2.35032 4.11706H0.854664V7.61656H0.106835V0H0ZM0.854664 3.39658H2.13665C3.63231 3.39658 4.05964 2.77901 4.05964 2.05853C4.05964 1.33804 3.52547 0.720486 2.13665 0.720486H0.854664V3.39658Z" transform="translate(61.5801 40.0918) rotate(0.337739)" fill="#3A3A3A"/>
<path d="M0.961495 7.61655H0L3.41864 0H4.16647L7.58511 7.61655H6.62361L5.76896 5.55802H1.70932L0.961495 7.61655ZM2.13665 4.83754H5.55529L3.84597 0.82341L2.13665 4.83754Z" transform="translate(70.0195 40.2443) rotate(0.337739)" fill="#3A3A3A"/>
<path d="M0.747825 7.61655H0V0H2.45715C4.05964 0 5.02113 0.720485 5.02113 2.05853C5.02113 3.08779 4.27331 3.9112 2.99132 4.01413L5.2348 7.61655H4.2733L2.13665 4.11706H0.747825V7.61655V7.61655ZM0.747825 3.29365H2.24348C3.63231 3.29365 4.16647 2.67608 4.16647 1.9556C4.16647 1.23511 3.63231 0.617557 2.24348 0.617557H0.747825V3.29365Z" transform="translate(82.8398 40.3201) rotate(0.337739)" fill="#3A3A3A"/>
<path d="M3.41865 7.71948H2.67081V0.720486H0V0H6.08946V0.720486H3.41865V7.71948Z" transform="translate(92.5615 40.2744) rotate(0.337739)" fill="#3A3A3A"/>
<path d="M0.854664 0H0V7.61656H0.854664V0Z" transform="translate(103.778 40.3405) rotate(0.337739)" fill="#3A3A3A"/>
<path d="M7.15778 6.58729C6.62362 7.4107 5.55529 8.02826 4.16647 8.02826C1.81616 8.02826 0 6.27851 0 4.01413C0 1.64682 1.70932 0 4.16647 0C5.12796 0 6.19629 0.30878 6.94412 1.23512L6.19629 1.74975C5.87579 1.23512 5.02113 0.720486 4.16647 0.720486C2.13665 0.720486 0.961495 2.26438 0.961495 4.01413C0.961495 5.76388 2.13665 7.30777 4.16647 7.30777C5.02113 7.30777 5.87579 6.999 6.40995 6.17559L7.15778 6.58729Z" transform="translate(110.086 40.2749) rotate(0.337739)" fill="#3A3A3A"/>
<path d="M5.76896 4.83754C5.76896 6.07266 5.2348 7.92533 2.88448 7.92533C0.534168 7.92533 0 6.17559 0 4.83754V0H0.854664V4.73462C0.854664 6.89607 2.35032 7.20485 2.99131 7.20485C3.63231 7.20485 5.12797 6.999 5.12797 4.73462V0H5.87579V4.83754H5.76896Z" transform="translate(122.047 40.4484) rotate(0.337739)" fill="#3A3A3A"/>
<path d="M0.854664 6.999H4.48696V7.71948H0V0H0.854664V6.999Z" transform="translate(133.8 40.5173) rotate(0.337739)" fill="#3A3A3A"/>
<path d="M0.961486 7.61655H0L3.41864 0H4.2733L7.69194 7.61655H6.73044L5.87579 5.55802H1.81615L0.961486 7.61655ZM2.13665 4.83754H5.55529L3.84596 0.82341L2.13665 4.83754Z" transform="translate(142.237 40.6699) rotate(0.337739)" fill="#3A3A3A"/>
<path d="M0.854664 7.61655H0V0H2.45715C4.05964 0 5.02113 0.720485 5.02113 2.05853C5.02113 3.08779 4.27331 3.9112 2.99131 4.01413L5.23479 7.61655H4.2733L2.13665 4.11706H0.747825V7.61655H0.854664ZM0.854664 3.29365H2.24349C3.73915 3.29365 4.16646 2.67608 4.16646 1.9556C4.16646 1.23511 3.63231 0.617557 2.24349 0.617557H0.854664V3.29365Z" transform="translate(154.952 40.7452) rotate(0.337739)" fill="#3A3A3A"/>
<path d="M0.854664 6.999H5.12797V7.71948H0V0H5.02114V0.720486H0.854664V3.39658H4.70064V4.01413H0.854664V6.999Z" transform="translate(165.529 40.7043) rotate(0.337739)" fill="#3A3A3A"/>
<path d="M4.16646 1.44097C3.84597 0.926339 3.31181 0.720486 2.67081 0.720486C1.81615 0.720486 0.961486 1.13219 0.961486 2.16145C0.961486 4.21998 5.02113 3.08779 5.02113 5.86681C5.02113 7.30778 3.63231 8.13119 2.45715 8.13119C1.49566 8.13119 0.534163 7.82241 0 6.999L0.747825 6.48436C1.06832 6.999 1.70931 7.4107 2.56397 7.4107C3.3118 7.4107 4.2733 6.89607 4.2733 5.96973C4.2733 3.80828 0.213662 5.04339 0.213662 2.16145C0.213662 0.720483 1.49565 0 2.77764 0C3.6323 0 4.38013 0.205854 5.02113 0.926339L4.16646 1.44097Z" transform="translate(176.104 40.6641) rotate(0.337739)" fill="#3A3A3A"/>
</svg>
