<?xml version="1.0" encoding="utf-8"?>
<!-- Generator: Adobe Illustrator 22.0.1, SVG Export Plug-In . SVG Version: 6.00 Build 0)  -->
<svg version="1.1" id="Capa_1" xmlns="http://www.w3.org/2000/svg" xmlns:xlink="http://www.w3.org/1999/xlink" x="0px" y="0px"
	 viewBox="0 0 100 103.7" style="enable-background:new 0 0 100 103.7;" xml:space="preserve">
<style type="text/css">
	.st0{fill:#7E7E7E;}
</style>
<g>
	<path class="st0" d="M49.7,71.8C68,71.8,83,56.9,83,38.5S68.2,5.2,49.7,5.2S16.4,20,16.4,38.5S31.4,71.8,49.7,71.8z M32.3,60.7
		c7.4-2.6,10.4-5.7,11.8-7.9c1.5,0.6,3.2,1,5.1,1h0.1h0.1h0.1h0.1c2.1,0,3.9-0.4,5.4-1.1c1.2,2.4,4.4,5.4,11.9,8
		c-4.9,3.7-10.8,6-17.3,6C43.2,66.8,37.1,64.6,32.3,60.7z M55.9,46.1c-1.5,1.8-3.6,2.6-6.4,2.6h-0.1c-2.8,0-4.9-0.8-6.4-2.6
		c-4-4.6-3.2-13.5-3.2-13.6v-0.1c0.4-9.3,7.2-10.1,9.3-10.1c0.1,0,0.3,0,0.3,0h0.1c1.5,0,9.2,0.1,9.6,10v0.1
		C59.4,35,59.3,42.2,55.9,46.1z M49.7,10.3C65.2,10.3,78,22.9,78,38.6c0,6.9-2.6,13.3-6.8,18.3c-9.7-2.9-11.5-6.2-11.8-7.1
		c0.1-0.1,0.3-0.3,0.3-0.3c5.4-6,4.6-16.2,4.4-17.3c-0.6-11.9-9.4-15-14.6-14.7c-5.3-0.1-14,2.8-14.6,14.7c-0.1,1.1-1,11.2,4.4,17.3
		c0.3,0.3,0.4,0.6,0.7,0.7c-0.6,1.1-2.9,4-11.7,6.7c-4.2-5-6.8-11.4-6.8-18.3C21.4,22.9,34.1,10.3,49.7,10.3z"/>
	<path class="st0" d="M73.6,81.2H26c-1.4,0-2.5,1.1-2.5,2.5s1.1,2.5,2.5,2.5h47.6c1.4,0,2.5-1.1,2.5-2.5
		C76.1,82.3,75,81.2,73.6,81.2z"/>
	<path class="st0" d="M65.1,94.4H34.1c-1.4,0-2.5,1.1-2.5,2.5s1.1,2.5,2.5,2.5h30.9c1.4,0,2.5-1.1,2.5-2.5
		C67.6,95.5,66.5,94.4,65.1,94.4z"/>
</g>
</svg>
