<?xml version="1.0" encoding="utf-8"?>
<!-- Generator: Adobe Illustrator 22.0.1, SVG Export Plug-In . SVG Version: 6.00 Build 0)  -->
<svg version="1.1" id="Capa_1" xmlns="http://www.w3.org/2000/svg" xmlns:xlink="http://www.w3.org/1999/xlink" x="0px" y="0px"
	 viewBox="0 0 250 250" style="enable-background:new 0 0 250 250;" xml:space="preserve">
<style type="text/css">
	.st0{fill:#00C6FF;}
</style>
<g>
	<ellipse class="st0" cx="67.7" cy="156.9" rx="6.4" ry="6.4"/>
	<path class="st0" d="M104,169.4c-2,0-3.6-1.6-3.6-3.6v-40.2c0-2,1.6-3.6,3.6-3.6h63.3c2,0,3.6,1.6,3.6,3.6v40.2
		c0,2-1.6,3.6-3.6,3.6H104z M107.6,162.2h56.1v-33h-56.1V162.2z"/>
	<path class="st0" d="M208.9,206.7c-5,0-9.1-4.1-9.1-9.1V179c0-1.6,1.3-2.8,2.8-2.8h3.4v-3.4c0-5,4.1-9.1,9.1-9.1h17.1
		c3.8,0,7.2-2.7,7.9-6.5c0.9-4.4-1.9-8.6-6.3-9.5l-0.3-0.1v0.3c-0.1,4.9-4.1,8.9-9.1,8.9H187c-5,0-9.1-4.1-9.1-9.1v-6.2
		c0-5,4.1-9.1,9.1-9.1h37.4c5,0,9.1,4.1,9.1,9.1v0.4h0.2c6.6,1,11.5,6.5,11.7,13.1c0.1,3.7-1.2,7.2-3.7,9.8
		c-2.5,2.7-5.9,4.2-9.6,4.3H215c-1.9,0-3.4,1.5-3.4,3.4v3.4h3.4c1.6,0,2.8,1.3,2.8,2.8v18.7C218,202.7,213.9,206.7,208.9,206.7z
		 M205.5,197.7c0,1.9,1.5,3.4,3.4,3.4s3.4-1.5,3.4-3.4v-15.9h-6.8L205.5,197.7L205.5,197.7z M187.1,138.2c-1.9,0-3.4,1.5-3.4,3.4
		v6.2c0,1.9,1.5,3.4,3.4,3.4h37.4c1.9,0,3.4-1.5,3.4-3.4v-6.2c0-1.9-1.5-3.4-3.4-3.4H187.1z"/>
	<path class="st0" d="M18.9,191.6c-2,0-3.6-1.6-3.6-3.6v-80l-0.1-0.1c-6-4.2-9.6-11.1-9.6-18.5V75.9c0-0.1,0-0.3,0-0.4
		c0-0.2,0.1-0.3,0.1-0.4c0.1-0.2,0.1-0.3,0.1-0.5c0.1-0.2,0.1-0.3,0.2-0.4l19.4-34c0.6-1.1,1.8-1.8,3.1-1.8h150.7
		c1.3,0,2.5,0.7,3.1,1.8l19.8,34c0.1,0.2,0.2,0.3,0.2,0.4c0.1,0.1,0.1,0.3,0.1,0.4c0.1,0.2,0.1,0.3,0.1,0.4c0,0.2,0,0.4,0,0.5v13.5
		c0,7.3-3.6,14.2-9.5,18.4l-0.1,0.1v20h-7.2v-16.6l-0.3,0.1c-0.4,0.1-0.8,0.2-1.2,0.3H184c-0.3,0.1-0.7,0.1-1,0.2h-0.3
		c-0.3,0-0.7,0.1-1,0.1h-0.3c-0.4,0-0.9,0-1.3,0c-0.4,0-0.7,0-1,0h-0.3c-0.3,0-0.6,0-0.9-0.1l-0.9-0.1c-6.1-0.8-11.6-4.1-15.2-9.1
		l-0.5-0.7l-0.2-0.4l-0.7,1c-3.6,5-9.2,8.3-15.2,9.1l-0.9,0.1c-0.3,0-0.6,0.1-0.9,0.1h-0.3c-0.3,0-0.7,0-1,0c-0.4,0-0.7,0-1,0h-0.3
		c-0.3,0-0.6,0-0.9-0.1l-0.9-0.1c-6.1-0.8-11.6-4.1-15.2-9.1l-0.5-0.7l-0.2-0.4l-0.7,1c-3.6,5-9.2,8.3-15.2,9.1l-0.9,0.1
		c-0.3,0-0.6,0.1-0.9,0.1h-0.3c-0.3,0-0.7,0-1,0c-0.4,0-0.7,0-1,0h-0.3c-0.3,0-0.6,0-0.9-0.1l-0.9-0.1c-6.1-0.8-11.6-4.1-15.2-9.1
		l-0.5-0.7l-0.2-0.4l-0.5,0.7l-0.2,0.3c-3.6,5-9.2,8.3-15.2,9.1l-0.9,0.1c-0.3,0-0.6,0.1-0.9,0.1h-0.3c-0.3,0-0.7,0-1,0
		c-0.4,0-0.7,0-1,0h-0.3c-0.3,0-0.6,0-0.9-0.1l-0.9-0.1c-6.1-0.8-11.6-4.1-15.2-9.1l-0.5-0.7l-0.2-0.4l-0.7,1
		c-3.6,5-9.2,8.3-15.2,9.1l-0.9,0.1c-0.3,0-0.6,0.1-0.9,0.1h-0.3c-0.3,0-0.7,0-1,0l0,0c-0.4,0-0.9,0-1.3,0h-0.2
		c-0.4,0-0.8-0.1-1.1-0.1h-0.2c-0.4-0.1-0.8-0.1-1.1-0.2h-0.3c-0.4-0.1-0.7-0.1-1.1-0.2l-0.4-0.1l-0.1,0.3v72.8h17.1v-58.8
		c0-2,1.6-3.6,3.6-3.6h38c2,0,3.6,1.6,3.6,3.6v58.8h101.1v-22.2h7.2V188c0,2-1.6,3.6-3.6,3.6H18.9z M46.7,184.4h30.8v-55.2H46.7
		V184.4z M12.7,89.4c0,5.6,3.1,10.8,8,13.5c0.2,0.1,0.5,0.3,0.7,0.4l0.1,0.1c0.3,0.1,0.5,0.2,0.7,0.3l0.3,0.1
		c0.2,0.1,0.4,0.2,0.6,0.2l0.2,0.1c0.6,0.2,1.2,0.3,1.8,0.5c0.4,0.1,0.6,0.1,0.9,0.1h0.2c0.2,0,0.5,0.1,0.7,0.1h0.2
		c0.3,0,0.6,0,0.9,0s0.5,0,0.7,0h0.7l0.6-0.1c4.2-0.6,8.1-2.9,10.6-6.4l0.1-0.1l0.4-0.6l0.2-0.3l0.3-0.6L42,96
		c0.1-0.1,0.1-0.3,0.2-0.4c0.1-0.2,0.3-0.8,0.3-0.8l0.2-0.6l0.1-0.4c0.4-1.4,0.6-2.9,0.6-4.3v-9.9H12.7V89.4z M164.6,89.4
		c0,1.5,0.2,2.9,0.6,4.3l0.2,0.6l0.2,0.5l0.3,0.6c0.1,0.2,0.2,0.4,0.3,0.6l0.3,0.6l0.3,0.6l0.4,0.6l0.3,0.5
		c2.5,3.5,6.3,5.8,10.5,6.4l0.6,0.1h0.7c0.2,0,0.4,0,0.7,0c0,0,0,0,0.1,0c0.3,0,0.6,0,0.9,0h0.2c0.2,0,0.5,0,0.7-0.1h0.2
		c0.3,0,0.6-0.1,0.9-0.1c0.7-0.1,1.3-0.3,1.9-0.5h0.1c0.3-0.1,0.5-0.2,0.7-0.3l0.2-0.1c0.3-0.1,0.6-0.2,0.8-0.4
		c0.3-0.2,0.5-0.3,0.8-0.4c4.9-2.7,7.9-7.9,7.9-13.5v-9.9h-30.8L164.6,89.4L164.6,89.4z M126.6,89.4c0,1.5,0.2,2.9,0.6,4.3l0.1,0.4
		l0.2,0.6l0.3,0.6c0.1,0.2,0.2,0.4,0.3,0.6l0.3,0.6l0.3,0.6l0.4,0.6l0.3,0.5c2.5,3.5,6.3,5.8,10.5,6.4l0.6,0.1h0.7
		c0.2,0,0.4,0,0.7,0s0.5,0,0.8,0h0.7l0.6-0.1c4.3-0.6,8.1-2.9,10.6-6.4l0.3-0.5l0.3-0.6l0.3-0.6l0.3-0.6c0.1-0.1,0.1-0.3,0.2-0.4
		c0.1-0.2,0.3-0.8,0.3-0.8c0.1-0.1,0.2-0.6,0.2-0.6l0.1-0.4c0.4-1.4,0.6-2.9,0.6-4.3v-9.9h-30.8v9.9H126.6z M88.6,89.4
		c0,1.5,0.2,2.9,0.6,4.3l0.1,0.4l0.2,0.6l0.3,0.6c0.1,0.2,0.2,0.4,0.3,0.6l0.3,0.6l0.3,0.6l0.4,0.6l0.3,0.5
		c2.5,3.5,6.3,5.8,10.5,6.4l0.6,0.1h0.7c0.2,0,0.4,0,0.7,0c0.3,0,0.5,0,0.8,0h0.7l0.6-0.1c4.2-0.6,8.1-2.9,10.6-6.4l0.3-0.5l0.3-0.6
		l0.3-0.6l0.3-0.6c0.1-0.1,0.1-0.3,0.2-0.4c0.1-0.2,0.3-0.8,0.3-0.8c0.1-0.1,0.2-0.6,0.2-0.6l0.1-0.4c0.4-1.4,0.6-2.9,0.6-4.3v-9.9
		H88.6V89.4z M50.7,89.4c0,1.5,0.2,2.9,0.6,4.3l0.1,0.4l0.2,0.6l0.3,0.6c0.1,0.2,0.2,0.4,0.3,0.6l0.3,0.6l0.3,0.6l0.4,0.6l0.2,0.3
		l0.1,0.2c2.5,3.5,6.3,5.8,10.5,6.4l0.6,0.1h0.7c0.2,0,0.4,0,0.7,0c0.3,0,0.5,0,0.8,0h0.7l0.6-0.1c4.2-0.6,8.1-2.9,10.6-6.4l0.1-0.1
		l0.4-0.6l0.3-0.5l0.2-0.4L80,96c0.1-0.1,0.1-0.3,0.2-0.4c0.1-0.2,0.3-0.8,0.3-0.8l0.2-0.6l0.1-0.4c0.4-1.4,0.6-2.9,0.6-4.3v-9.9
		H50.7V89.4z M15.3,72.3h177.5l-15.6-26.8H30.6L15.3,72.3z"/>
</g>
</svg>
