<svg width="52" height="52" viewBox="0 0 52 52" fill="none" xmlns="http://www.w3.org/2000/svg">
<path d="M26 0C11.7 0 0 11.7 0 26C0 40.3 11.7 52 26 52C40.3 52 52 40.3 52 26C52 11.7 40.3 0 26 0ZM26 46.8C14.56 46.8 5.2 37.44 5.2 26C5.2 14.56 14.56 5.2 26 5.2C37.44 5.2 46.8 14.56 46.8 26C46.8 37.44 37.44 46.8 26 46.8ZM36.14 16.38L20.8 31.72L15.86 26.78C14.82 25.74 13.26 25.74 12.22 26.78C11.18 27.82 11.18 29.38 12.22 30.42L18.98 37.18C20.02 38.22 21.58 38.22 22.62 37.18L39.78 20.02C40.82 18.98 40.82 17.42 39.78 16.38C38.74 15.34 37.18 15.34 36.14 16.38Z" fill="#10BE9F"/>
</svg>
