<svg width="29" height="30" viewBox="0 0 29 30" fill="none" xmlns="http://www.w3.org/2000/svg">
<path d="M12.7741 1.50465V27.5898C12.7741 28.4791 11.9225 29.2201 11.0709 29.0719C4.68384 27.5898 0 21.6614 0 14.5472C0 7.4331 4.68384 1.50465 11.0709 0.0225374C11.9225 -0.125674 12.7741 0.467171 12.7741 1.50465ZM15.6128 1.50465V11.583C15.6128 12.4723 16.1805 13.0651 17.0321 13.0651H26.6837C27.5353 13.0651 28.245 12.1759 28.103 11.2866C26.8256 5.65456 22.7095 1.20823 17.316 0.0225374C16.4644 -0.125674 15.6128 0.467171 15.6128 1.50465ZM15.6128 17.5115V27.5898C15.6128 28.4791 16.4644 29.2201 17.316 29.0719C22.7095 27.738 26.8256 23.4399 28.103 17.8079C28.245 16.9186 27.5353 16.0293 26.6837 16.0293H17.0321C16.3225 16.0293 15.6128 16.7704 15.6128 17.5115Z" fill="white"/>
</svg>
