<svg width="29" height="29" viewBox="0 0 29 29" fill="none" xmlns="http://www.w3.org/2000/svg">
<path d="M13.563 2.30085V26.8094C13.563 27.645 12.7159 28.3412 11.8689 28.202C5.51568 26.8094 0.856689 21.2393 0.856689 14.5551C0.856689 7.87098 5.51568 2.30085 11.8689 0.908314C12.7159 0.76906 13.563 1.32607 13.563 2.30085ZM16.3867 2.30085V11.7701C16.3867 12.6056 16.9514 13.1626 17.7985 13.1626H27.3988C28.2459 13.1626 28.9518 12.3271 28.8106 11.4916C27.54 6.19994 23.4457 2.02234 18.0808 0.908314C17.2338 0.76906 16.3867 1.32607 16.3867 2.30085ZM16.3867 17.3402V26.8094C16.3867 27.645 17.2338 28.3412 18.0808 28.202C23.4457 26.9487 27.54 22.9103 28.8106 17.6187C28.9518 16.7832 28.2459 15.9477 27.3988 15.9477H17.7985C17.0926 15.9477 16.3867 16.6439 16.3867 17.3402Z" fill="#E5E5E5"/>
</svg>
