<svg width="52" height="52" viewBox="0 0 52 52" fill="none" xmlns="http://www.w3.org/2000/svg">
<g clip-path="url(#clip0)">
<path d="M26 0C11.7 0 0 11.7 0 26C0 40.3 11.7 52 26 52C40.3 52 51.9999 40.3 51.9999 26C51.9999 11.7 40.3 0 26 0ZM26 46.8C14.56 46.8 5.19999 37.44 5.19999 26C5.19999 14.56 14.56 5.2 26 5.2C37.44 5.2 46.7999 14.56 46.7999 26C46.7999 37.44 37.44 46.8 26 46.8ZM23.4 36.4H28.6V41.6H23.4V36.4ZM27.56 10.4C22.1 9.62 17.42 13 16.12 17.68C15.6 19.24 16.64 20.8 18.46 20.8H18.98C20.02 20.8 20.8 20.02 21.06 18.98C21.84 16.64 24.44 15.08 27.04 15.6C29.38 16.12 31.2 18.46 31.2 21.06C30.94 24.44 27.04 25.22 24.96 28.6C24.96 28.6 24.96 28.6 24.96 28.86C24.7 29.12 24.44 29.64 24.18 30.16V30.42C24.18 30.42 24.18 30.42 24.18 30.68C23.66 31.46 23.4 32.5 23.4 33.8H28.6C28.6 32.76 28.86 31.72 29.38 30.94C29.38 30.94 29.38 30.68 29.64 30.68C29.9 30.42 30.16 29.9 30.42 29.64C30.68 29.38 30.94 29.12 31.2 28.86C33.8 26.52 37.18 24.7 36.4 19.5C35.62 15.08 31.98 11.18 27.56 10.4Z" fill="#95AECC"/>
</g>
<defs>
<clipPath id="clip0">
<rect width="51.9999" height="52" fill="white"/>
</clipPath>
</defs>
</svg>
