<svg width="25" height="25" viewBox="0 0 25 25" fill="none" xmlns="http://www.w3.org/2000/svg">
<path d="M12.5 8.33333H18.0556C18.75 8.33333 19.4444 7.77778 19.4444 6.94444C19.4444 6.11111 18.75 5.55556 18.0556 5.55556H12.5C11.6667 5.55556 11.1111 6.11111 11.1111 6.94444C11.1111 7.77778 11.6667 8.33333 12.5 8.33333ZM12.5 13.8889H18.0556C18.75 13.8889 19.4444 13.3333 19.4444 12.5C19.4444 11.6667 18.75 11.1111 18.0556 11.1111H12.5C11.6667 11.1111 11.1111 11.6667 11.1111 12.5C11.1111 13.3333 11.6667 13.8889 12.5 13.8889ZM12.5 19.4444H18.0556C18.75 19.4444 19.4444 18.75 19.4444 18.0556C19.4444 17.3611 18.75 16.6667 18.0556 16.6667H12.5C11.6667 16.6667 11.1111 17.2222 11.1111 18.0556C11.1111 18.75 11.6667 19.4444 12.5 19.4444ZM5.55556 5.55556H8.33333V8.33333H5.55556V5.55556ZM5.55556 11.1111H8.33333V13.8889H5.55556V11.1111ZM5.55556 16.6667H8.33333V19.4444H5.55556V16.6667ZM23.6111 0H1.38889C0.694444 0 0 0.694444 0 1.38889V23.6111C0 24.3056 0.694444 25 1.38889 25H23.6111C24.3056 25 25 24.3056 25 23.6111V1.38889C25 0.694444 24.3056 0 23.6111 0ZM22.2222 22.2222H2.77778V2.77778H22.2222V22.2222Z" fill="#E5E5E5"/>
</svg>
