<svg width="26" height="30" viewBox="0 0 26 30" fill="none" xmlns="http://www.w3.org/2000/svg">
<path d="M0 22.0463C0 23.4636 0.629895 24.7234 1.57474 25.5107V27.5579C1.57474 28.8177 2.67705 29.92 3.93684 29.92C5.19663 29.92 6.29895 28.8177 6.29895 27.5579V26.7705H18.8968V27.5579C18.8968 28.8177 19.9992 29.92 21.2589 29.92C22.5187 29.92 23.621 28.8177 23.621 27.5579V25.5107C24.5659 24.7234 25.1958 23.4636 25.1958 22.0463V6.29895C25.1958 0.787368 19.5267 0 12.5979 0C5.66905 0 0 0.787368 0 6.29895V22.0463ZM5.51158 23.6211C4.25179 23.6211 3.14947 22.5187 3.14947 21.2589C3.14947 19.9992 4.25179 18.8968 5.51158 18.8968C6.77137 18.8968 7.87368 19.9992 7.87368 21.2589C7.87368 22.5187 6.77137 23.6211 5.51158 23.6211ZM19.6842 23.6211C18.4244 23.6211 17.3221 22.5187 17.3221 21.2589C17.3221 19.9992 18.4244 18.8968 19.6842 18.8968C20.944 18.8968 22.0463 19.9992 22.0463 21.2589C22.0463 22.5187 20.944 23.6211 19.6842 23.6211ZM22.0463 14.1726H3.14947V6.29895H22.0463V14.1726Z" fill="#E5E5E5"/>
</svg>
