<svg width="52" height="52" viewBox="0 0 52 52" fill="none" xmlns="http://www.w3.org/2000/svg">
<path d="M30.94 17.42L26 22.36L21.06 17.42C20.02 16.38 18.46 16.38 17.42 17.42C16.38 18.46 16.38 20.02 17.42 21.06L22.36 26L17.42 30.94C16.38 31.98 16.38 33.54 17.42 34.58C18.46 35.62 20.02 35.62 21.06 34.58L26 29.64L30.94 34.58C31.98 35.62 33.54 35.62 34.58 34.58C35.62 33.54 35.62 31.98 34.58 30.94L29.64 26L34.58 21.06C35.62 20.02 35.62 18.46 34.58 17.42C33.54 16.38 31.98 16.38 30.94 17.42ZM26 0C11.7 0 0 11.7 0 26C0 40.3 11.7 52 26 52C40.3 52 52 40.3 52 26C52 11.7 40.3 0 26 0ZM26 46.8C14.56 46.8 5.2 37.44 5.2 26C5.2 14.56 14.56 5.2 26 5.2C37.44 5.2 46.8 14.56 46.8 26C46.8 37.44 37.44 46.8 26 46.8Z" fill="#D61087"/>
</svg>
