<?xml version="1.0" encoding="utf-8"?>
<!-- Generator: Adobe Illustrator 22.0.1, SVG Export Plug-In . SVG Version: 6.00 Build 0)  -->
<svg version="1.1" id="Capa_1" xmlns="http://www.w3.org/2000/svg" xmlns:xlink="http://www.w3.org/1999/xlink" x="0px" y="0px"
	 viewBox="0 0 250 250" style="enable-background:new 0 0 250 250;" xml:space="preserve">
<style type="text/css">
	.st0{fill:#00C6FF;}
</style>
<g>
	<path class="st0" d="M240.6,26.3c-2.5-1.6-5.3-2.4-8.6-2.4c-0.6,0-1.3,0-2,0.1c-6.9,1.1-12.8,3.6-18.5,7.8
		c-5.6,4-10.7,8.1-16.5,13.2l-8.8,7.7c-0.9,0.9-1.8,1.7-2.7,2.5s-1.8,1.7-2.7,2.5c-1.4,1.1-2.6,1.8-4.1,1.8c-0.3,0-0.6,0-0.9-0.1
		c-1.1-0.4-2.6-0.7-4-1.1l-68.6-25.7c-2.2-0.7-4.4-1.5-7-2.2c-1.4-0.4-2.8-0.6-4.2-0.6c-3.5,0-5.9,1.4-7.2,2.5
		c-4.1,3-7.5,6.7-9.7,10.8c-2.7,4.2-2,8.9,1.9,12.3c1.5,1.5,3.1,2.7,4.1,3.4c6.2,4.4,12.7,8.8,18.9,13c6.2,4.2,12.7,8.6,18.9,13
		l0.8,0.6c4.4,3,8.5,5.9,11.6,9.6c0.6,0.6,1.3,1.6,1.9,2.5l-23.9,22.4c-1.3,1.1-2.5,2.3-3.7,3.5c-1.1,1.1-2.3,2.3-3.5,3.3
		c-0.1,0-0.1-0.1-0.2-0.1c-0.2-0.1-0.4-0.2-0.6-0.2l-3.6-1.8c-1.6-0.7-3.3-1.6-4.9-2.4s-3.3-1.7-5-2.4c-1.7-0.8-3.4-1.2-5.2-1.2
		c-2.6,0-5.1,0.9-7.1,2.7c-1.9,1.5-3.7,3.3-5.2,5.2c-3.5,3.5-3.8,7.9-0.8,11.6c0.4,0.6,0.8,1,1.1,1.5c0.4,0.4,0.7,0.9,1.1,1.5l5.5,7
		c4.4,5.5,8.8,11.2,13,16.7s8.6,11.2,13,16.7c1.3,1.7,2.4,2.7,3.8,3.4l0.4,0.2c1.2,0.6,3.1,1.6,5.5,1.6c0.8,0,1.7-0.1,2.5-0.4
		c4.7-1.6,8-4.7,9.5-9.1c1.6-4.1,1.8-8.3,0.4-12.4l-0.7-3.3l-2.1-8.5c7.2-5.4,14.4-11,21.3-16.5l4.5-3.5l7.6-5.9l0.8,1.4
		c2.8,4.3,4.9,8.3,6.6,12.4l16.1,43.3c0.5,1.3,1,2.6,1.5,3.8c0.5,1.3,0.9,2.6,1.5,3.9c1.9,4.2,5.1,6.5,8.9,6.5
		c1.5,0,3.1-0.4,4.6-1.1c1.1-0.4,2.2-0.7,3-1.1c6.1-3,9.8-7.2,11.2-12.8c1.1-3.2,1.2-6.9,0.4-11.6l-8.8-64.2
		c-0.7-5.4-1.4-10.4-2.1-15.4l-0.1-0.4c-0.3-2.3,0.2-3.6,2-5.1l8.1-6.6c2.9-2.6,5.9-5.1,9-7.7c3-2.6,6.1-5.1,9-7.7
		c4.6-4,8.1-7.8,11.5-12.9c2.8-4.2,4.6-8.1,5.5-11.8C246.8,34.7,245.2,29,240.6,26.3z M191.8,93.6c0.4,2.6,0.7,5.2,1.1,7.9
		c0.4,2.7,0.7,5.3,1.1,7.9l8.8,64.2c0.3,3.3,0.4,6-0.3,8.2c-1.1,3.3-3.3,5.7-6.7,7.4c-0.7,0.4-1.4,0.7-2.5,1.1
		c-0.7,0.2-1.2,0.3-1.5,0.3c-0.6,0-1-0.2-1.5-1.5s-1-2.5-1.5-3.6c-0.5-1.2-0.9-2.4-1.5-3.7l-16.1-43.3c-1.8-4.8-4.5-9.3-7-13.6
		l-1.9-3.3l-3.6-5.6l-3.8,2.5l-0.7,0.7l-10.7,8.1c-9,6.8-18.3,13.9-27.1,20.9c-3,2.1-2.3,4.9-2,6c0.4,1.7,0.8,3.3,1.3,5
		c0.4,1.6,0.9,3.3,1.3,4.9l0.7,3.3c0.8,3,0.6,5.4-0.3,7.4c-1.1,2.3-2.6,3.5-4.7,4.1c0,0-0.6,0-1.6-0.7c-0.7-0.3-1.4-1-1.7-1.3
		c-4.4-5.5-8.8-11.2-13-16.7s-8.6-11.2-13-16.7l-5.5-7c-0.7-0.7-1.4-1.4-1.7-2.4V134l-0.1-0.1c-0.1-0.1-0.1-0.2-0.2-0.2l0.5-0.5
		c1.5-1.5,3.3-3.3,4.8-4.4c0.5-0.5,1.1-0.7,1.7-0.7c0.5,0,1.1,0.2,1.7,0.5c3.2,1.4,6.6,2.9,9.5,4.8l5.8,2.9c0.8,0.5,1.6,0.7,2.5,0.7
		c1.3,0,2.7-0.5,3.9-1.5c3-2.6,5.9-5.5,8.5-8.1l25.7-24.3l3.1-4.3l-2-2.8c-0.2-0.4-0.4-0.7-0.6-1c-0.2-0.3-0.3-0.5-0.6-0.9
		c-0.4-0.5-0.8-1.1-1.1-1.6c-0.6-0.9-1.2-1.8-1.8-2.4c-3.6-4.2-7.9-7.9-14-11.8c-12.8-8.4-25.5-17.4-37.8-26
		c-1.1-0.7-2.2-1.4-3.2-2.5c-0.9-0.9-0.9-1-0.3-1.6c1.6-2.9,4.3-5.8,8-8.7c0.3-0.3,0.8-0.6,1.7-0.6c0.6,0,1.3,0.1,2.2,0.4
		c2.5,0.7,4.7,1.5,6.6,2.2l68.6,25.7c1.5,0.6,3,1,4.3,1.3l0.9,0.2c0.8,0.2,1.7,0.2,2.5,0.2c3.4,0,6.6-1.3,9.3-3.7
		c0.9-0.9,1.8-1.7,2.7-2.6c0.9-0.8,1.8-1.7,2.7-2.6c1.5-1.3,2.8-2.6,4.2-3.9c1.4-1.3,2.7-2.6,4.2-3.8c6.4-5.7,11.7-9.8,16.1-13.2
		c4.4-3.3,9.5-5.4,14.8-6.1c0.4-0.1,0.9-0.1,1.3-0.1c1,0,2,0.3,3.2,0.8c1.6,0.6,2.2,2.5,1.5,4.5c-1.1,3.8-3.1,7.2-4.7,9.8
		c-2.2,3.6-5.5,7.3-9.8,10.9c-2.9,2.6-6,5.1-9,7.7s-6.1,5.1-9,7.7l-7.7,6.6C192.9,83.7,191,88.3,191.8,93.6z"/>
	<path class="st0" d="M76.8,165.1c-0.7-1-2-1.6-3.4-1.6c-0.9,0-1.8,0.3-2.4,0.7L7.1,213.6c-1.7,1.3-2.1,4.1-0.8,5.8
		c0.7,1.1,1.9,1.7,3.3,1.7c0.9,0,1.6-0.4,2.5-0.8L76,171C77.6,169.7,78,166.8,76.8,165.1z"/>
	<path class="st0" d="M85.4,180.4c-0.9,0-1.8,0.3-2.4,0.7l-38.5,29.2c-1.8,1.8-1.9,4.3-0.4,5.7c0.7,1.1,1.9,1.7,3.3,1.7
		c0.8,0,1.6-0.4,2.5-0.8l38-29.2c0.8-0.6,1.4-1.6,1.5-2.8c0.2-1.1-0.1-2.3-0.7-3.1C88.1,181,86.8,180.4,85.4,180.4z"/>
	<path class="st0" d="M35,176.7c0.8,0,1.6-0.4,2.5-0.8l25.9-19.6c0.8-0.6,1.4-1.6,1.5-2.8c0.2-1.1-0.1-2.3-0.7-3.1
		c-0.7-1-2-1.6-3.4-1.6c-0.9,0-1.8,0.3-2.4,0.7l-25.9,19.6c-0.8,0.6-1.4,1.6-1.5,2.8c-0.2,1.1,0.1,2.3,0.7,3
		C32.4,176.1,33.6,176.7,35,176.7z"/>
</g>
</svg>
